# xmcd
#
# Track frame offsets:
#	150
#	25227
#	39325
#	57717
#	75657
#	94637
#	112222
#	131430
#	148832
#	165860
#	183260
#	198182
#	216097
#	236512
#	254250
#	268460
#
# Disc length: 3815 seconds
#
# Revision: 1
# Processed by: cddbd v1.5.1PL0 Copyright (c) Steve Scherf et al.
# Submitted via: CDex 1.50Beta5
#
DISCID=e20ee510
DTITLE=Various Artist - NEW MUSIC BEST SELECTION
DYEAR=1900
DGENRE=New Age
TTITLE0=長渕 剛/乾杯
TTITLE1=長渕 剛/順子
TTITLE2=アリス/帰らざる日々
TTITLE3=アリス/今はもうだれも
TTITLE4=アリス/チャンピオン
TTITLE5=オフコース/愛を止めないで
TTITLE6=オフコース/YES-YES-YES
TTITLE7=オフコース/秋の気配
TTITLE8=稲垣潤一/ドラマティック・レイン
TTITLE9=稲垣潤一/夏のクラクション
TTITLE10=山本達彦/LAST GOOD-BYE
TTITLE11=山本達彦/MAN+WOMAN=100%
TTITLE12=チューリップ/虹とスニーカーの頃
TTITLE13=チューリップ/ブルー・スカイ
TTITLE14=チューリップ/魔法の黄色い靴
TTITLE15=チューリップ/青春の影
EXTD=
EXTT0=
EXTT1=
EXTT2=
EXTT3=
EXTT4=
EXTT5=
EXTT6=
EXTT7=
EXTT8=
EXTT9=
EXTT10=
EXTT11=
EXTT12=
EXTT13=
EXTT14=
EXTT15=
PLAYORDER=
